<?xml version="1.0" encoding="UTF-8"?>
<svg width="219px" height="877px" viewBox="0 0 219 877" version="1.1" xmlns="http://www.w3.org/2000/svg" xmlns:xlink="http://www.w3.org/1999/xlink">
    <!-- Generator: Sketch 63.1 (92452) - https://sketch.com -->
    <title>Vertical card 7</title>
    <desc>Created with Sketch.</desc>
    <g id="Symbols" stroke="none" stroke-width="1" fill="none" fill-rule="evenodd">
        <g id="Vertical-card-1" transform="translate(1.000000, 1.000000)">
            <g id="Vertical-card-7">
                <g id="Vertical-card-1">
                    <g id="Group-8">
                        <g id="ABC-fund-card-vertical">
                            <rect id="Rectangle" stroke-opacity="0.5" stroke="#FFFFFF" stroke-width="1" fill="#FFFFFF" fill-rule="evenodd" x="0" y="0" width="217" height="875" rx="4"></rect>
                            <g id="Group-17" stroke-width="1" fill-rule="evenodd" transform="translate(24.000000, 380.000000)">
                                <g id="Group-16" transform="translate(0.000000, 240.000000)" fill="#F05858">
                                    <circle id="Oval" cx="27.5" cy="27.5" r="27.5"></circle>
                                </g>
                                <text id="Validation-Exception" font-family="Overpass-Regular, Overpass" font-size="11" font-weight="normal" line-spacing="15" fill="#333333">
                                    <tspan x="63" y="258">Validation</tspan>
                                    <tspan x="63" y="273">Exceptions</tspan>
                                </text>
                                <text id="Validation-Exception-Copy" font-family="Overpass-Regular, Overpass" font-size="11" font-weight="normal" line-spacing="15" fill="#333333">
                                    <tspan x="67" y="11">Validation</tspan>
                                    <tspan x="67" y="26">Exceptions</tspan>
                                </text>
                            </g>
                            <g id="Group-17-Copy" stroke-width="1" fill-rule="evenodd" transform="translate(24.000000, 671.000000)">
                                <g id="Group-16"></g>
                                <text id="Material-Breaks" font-family="Overpass-Regular, Overpass" font-size="11" font-weight="normal" line-spacing="15" fill="#333333">
                                    <tspan x="64" y="37">Material</tspan>
                                    <tspan x="64" y="52">Breaks</tspan>
                                </text>
                            </g>
                            <g id="Group-11" stroke-width="1" fill-rule="evenodd" transform="translate(24.000000, 357.000000)">
                                <g id="Group-18" transform="translate(0.000000, 16.000000)" fill="#F05858">
                                    <circle id="Oval" cx="27.5" cy="27.5" r="27.5"></circle>
                                </g>
                                <g id="Group-5"></g>
                            </g>
                            <g id="Fund-Transactions" stroke-width="1" fill-rule="evenodd" transform="translate(31.000000, 446.000000)">
                                <g id="Non-Trading" transform="translate(0.000000, 0.175000)">
                                    <line x1="-8.75632739e-16" y1="21.375" x2="155.475" y2="21.15" id="Line-Copy" stroke="#9E9E9E" stroke-width="0.63" stroke-linecap="square"></line>
                                    <line x1="-8.75632739e-16" y1="38.65" x2="155.475" y2="38.425" id="Line-Copy-4" stroke="#9E9E9E" stroke-width="0.63" stroke-linecap="square"></line>
                                    <line x1="-8.75632739e-16" y1="57.0375" x2="155.475" y2="56.8125" id="Line-Copy-5" stroke="#9E9E9E" stroke-width="0.63" stroke-linecap="square"></line>
                                    <text id="Opening-Accrual-Cash" font-family="Overpass-Regular, Overpass" font-size="10.35" font-weight="normal" line-spacing="18" fill="#333333">
                                        <tspan x="2.7" y="10">Opening Accrual</tspan>
                                        <tspan x="2.7" y="28">Cash Payments</tspan>
                                        <tspan x="2.7" y="46">Current Accrual</tspan>
                                        <tspan x="2.7" y="64">Ending Accrual</tspan>
                                    </text>
                                    <text id="12,385,621-1,456,978" font-family="Overpass-Regular, Overpass" font-size="10.35" font-weight="normal" line-spacing="18" fill="#333333">
                                        <tspan x="100.99215" y="10">12,385,621</tspan>
                                        <tspan x="105.7428" y="28">1,456,978</tspan>
                                        <tspan x="110.84535" y="46">453,249</tspan>
                                        <tspan x="103.5693" y="64">11,381,892</tspan>
                                    </text>
                                </g>
                            </g>
                            <g id="Capital" stroke-width="1" fill-rule="evenodd" transform="translate(31.000000, 15.000000)">
                                <text id="150M-75M" font-family="Overpass-Regular, Overpass" font-size="9.9" font-weight="normal" line-spacing="34.2" fill="#000000">
                                    <tspan x="9.1836" y="21">150M</tspan>
                                    <tspan x="14.0346" y="55.2">75M</tspan>
                                </text>
                                <text id="Sub-Red-Tfr" font-family="Overpass-Regular, Overpass" font-size="10.8" font-weight="normal" line-spacing="31.5" fill="#000000">
                                    <tspan x="44" y="11">Sub	   Red        Tfr</tspan>
                                    <tspan x="133.074" y="11" font-size="11.7"></tspan>
                                </text>
                                <line x1="40.5" y1="31.35" x2="138.19125" y2="30.9" id="Line-Copy" stroke="#000000" stroke-width="0.63" stroke-linecap="square"></line>
                                <line x1="40.5" y1="64.425" x2="138.19125" y2="63.975" id="Line-Copy-2" stroke="#000000" stroke-width="0.63" stroke-linecap="square"></line>
                                <rect id="Rectangle" fill="#00B991" x="40.5" y="34.3567273" width="22.5" height="63"></rect>
                                <rect id="Rectangle-Copy" fill="#00B991" x="79.6" y="77.3567273" width="22.5" height="20"></rect>
                                <rect id="Rectangle-Copy-2" fill="#00B991" x="117.7" y="70.3567273" width="22.5" height="27"></rect>
                                <polygon id="Rectangle-Copy-5" fill="#F05858" points="40.5 30.2 63 30.2 63 41.2 40.5 41.2"></polygon>
                                <polygon id="Rectangle-Copy-7" fill="#F05858" points="117.7 66.4 140.2 66.4 140.2 73.6 117.7 73.6"></polygon>
                            </g>
                            <g id="Group-6" stroke-width="1" fill-rule="evenodd" transform="translate(14.795625, 11.325000)" stroke="#838383" stroke-linecap="square">
                                <line x1="-7.95366404e-16" y1="1.35" x2="60.704375" y2="1.175" id="Line-Copy-3" stroke-width="0.63"></line>
                                <line x1="127.056562" y1="1.35" x2="187.760937" y2="1.175" id="Line-Copy-6" stroke-width="0.63"></line>
                            </g>
                            <g id="Group-6-Copy" stroke-width="1" fill-rule="evenodd" transform="translate(14.795625, 129.000000)" stroke="#838383" stroke-linecap="square">
                                <line x1="-7.95366404e-16" y1="1.35" x2="31.704375" y2="1.5" id="Line-Copy-3" stroke-width="0.63"></line>
                                <line x1="-7.95366404e-16" y1="106.35" x2="40.704375" y2="106.5" id="Line-Copy-7" stroke-width="0.63"></line>
                                <line x1="-7.95366404e-16" y1="233.35" x2="54.704375" y2="233.5" id="Line-Copy-9" stroke-width="0.63"></line>
                                <line x1="-7.95366404e-16" y1="310.35" x2="45.704375" y2="310.5" id="Line-Copy-17" stroke-width="0.63"></line>
                                <line x1="-7.95366404e-16" y1="403.35" x2="45.704375" y2="403.5" id="Line-Copy-19" stroke-width="0.63"></line>
                                <line x1="-7.95366404e-16" y1="475.35" x2="30.704375" y2="475.5" id="Line-Copy-11" stroke-width="0.63"></line>
                                <line x1="-7.95366404e-16" y1="554.35" x2="61.704375" y2="554.5" id="Line-Copy-13" stroke-width="0.63"></line>
                                <line x1="-7.95366404e-16" y1="627.35" x2="53.704375" y2="627.5" id="Line-Copy-15" stroke-width="0.63"></line>
                                <line x1="156.704375" y1="1.5" x2="187.760937" y2="1.175" id="Line-Copy-6" stroke-width="0.63"></line>
                                <line x1="144.704375" y1="106.5" x2="187.760937" y2="106.175" id="Line-Copy-8" stroke-width="0.63"></line>
                                <line x1="133.704375" y1="233.5" x2="187.760937" y2="233.175" id="Line-Copy-10" stroke-width="0.63"></line>
                                <line x1="137.704375" y1="310.5" x2="187.760937" y2="310.175" id="Line-Copy-18" stroke-width="0.63"></line>
                                <line x1="137.704375" y1="403.5" x2="187.760937" y2="403.175" id="Line-Copy-20" stroke-width="0.63"></line>
                                <line x1="152.704375" y1="475.5" x2="187.760937" y2="475.175" id="Line-Copy-12" stroke-width="0.63"></line>
                                <line x1="127.704375" y1="554.5" x2="187.760937" y2="554.175" id="Line-Copy-14" stroke-width="0.63"></line>
                                <line x1="127.704375" y1="627.5" x2="187.760937" y2="627.175" id="Line-Copy-16" stroke-width="0.63"></line>
                            </g>
                            <g id="77-Breaks-11" stroke-width="1" fill-rule="evenodd" transform="translate(19.000000, 243.000000)">
                                <line x1="30.75" y1="58" x2="150.25" y2="57.5" id="Line-Copy" stroke="#7F7F7F" stroke-width="0.7" stroke-linecap="square"></line>
                                <g id="Group-10">
                                    <text id="50M-25M" font-family="Overpass-Regular, Overpass" font-size="10.5" font-weight="normal" line-spacing="33" fill="#333333">
                                        <tspan x="0" y="48">50M</tspan>
                                        <tspan x="0" y="81">25M</tspan>
                                    </text>
                                    <line x1="31" y1="89.75" x2="150.5" y2="89.25" id="Line-Copy-2" stroke="#7F7F7F" stroke-width="0.7" stroke-linecap="square"></line>
                                    <rect id="Rectangle" fill="#F05858" x="33" y="55" width="23" height="45"></rect>
                                    <rect id="Rectangle-Copy-3" fill="#F05858" x="63" y="77" width="23" height="23"></rect>
                                    <rect id="Rectangle-Copy-4" fill="#F05858" x="93" y="77" width="23" height="23"></rect>
                                    <rect id="Rectangle-Copy-8" fill="#F05858" x="123" y="60" width="23" height="40"></rect>
                                    <text id="77-Breaks-$341,130-Exp" font-family="Overpass-Regular, Overpass" font-size="11" font-weight="normal" line-spacing="15" fill="#333333">
                                        <tspan x="67.866" y="11">77 Breaks</tspan>
                                        <tspan x="59.3465" y="26">$341,130 Exp</tspan>
                                    </text>
                                </g>
                                <text id="Pos-Cash-OTE-OTC" font-family="Overpass-Regular, Overpass" font-size="11" font-weight="normal" line-spacing="35" fill="#333333">
                                    <tspan x="35" y="36">Pos   Cash   OTE   OTC</tspan>
                                </text>
                            </g>
                            <g id="Group-14" stroke-width="1" fill-rule="evenodd" transform="translate(33.000000, 535.000000)" font-family="Overpass-Regular, Overpass" font-size="12" font-weight="normal" line-spacing="17">
                                <text id="Fund-Inc-/-Exp-Mkt-V" fill="#333333">
                                    <tspan x="0" y="12.6">Fund</tspan>
                                    <tspan x="0" y="29.6">Inc / Exp</tspan>
                                    <tspan x="0" y="46.6">Mkt Val</tspan>
                                </text>
                                <text id="+6.2-+8.1--4.3">
                                    <tspan x="121.252" y="12.6" fill="#333333">+6.2</tspan>
                                    <tspan x="123.952" y="29.6" fill="#333333">+8.1</tspan>
                                    <tspan x="124.036" y="46.6" fill="#FE4851">-4.3</tspan>
                                </text>
                            </g>
                            <g id="Fund-Transactions" transform="translate(68.000000, 141.000000)" fill-rule="evenodd" stroke-width="1">
                                <g id="Group-9">
                                    <g id="Group-13">
                                        <path d="M39.6323596,13.3980262 L39.6323596,0.00117222472 C21.552747,0.0426652584 6.31159281,12.161236 1.54659236,28.7173286 C4.50990202,29.5568648 9.47269213,30.9136684 13.962871,32.132596 C17.4694975,21.2885871 27.630453,13.4384028 39.6323596,13.3980262" id="Fill-1" fill="#F05858"></path>
                                        <path d="M39.6323596,13.3980262 L39.6323596,0.00117222472 C21.552747,0.0426652584 6.31159281,12.161236 1.54659236,28.7173286 C4.50990202,29.5568648 9.47269213,30.9136684 13.962871,32.132596 C17.4694975,21.2885871 27.630453,13.4384028 39.6323596,13.3980262 Z" id="Stroke-3" stroke="#FFFFFF" stroke-width="0.7452"></path>
                                        <path d="M43.5397753,0.183164764 C42.2841924,0.0635234157 41.0122355,7.44269663e-05 39.7253933,7.44269663e-05 C39.69432,7.44269663e-05 39.6634328,0.00100476404 39.6323596,0.00119083146 L39.6323596,13.3980448 C39.6634328,13.3978587 39.69432,13.3969284 39.7253933,13.3969284 C41.0202364,13.3969284 42.2933097,13.489776 43.5397753,13.6656097 C56.6850661,15.5195854 66.7982022,26.8127612 66.7982022,40.4697373 C66.7982022,55.4215567 54.6772126,67.5425463 39.7253933,67.5425463 C29.1813249,67.5425463 20.045787,61.5141481 15.5755173,52.7163225 L4.5785609,58.2512699 C11.2371694,70.8577095 24.4766103,79.4508609 39.7253933,79.4508609 C61.6651604,79.4508609 79.4507865,61.6650488 79.4507865,39.7254677 C79.4507865,19.0725427 63.68976,2.10300836 43.5397753,0.183164764" id="Fill-5" fill="#00B991"></path>
                                        <path d="M43.5397753,0.183164764 C42.2841924,0.0635234157 41.0122355,7.44269663e-05 39.7253933,7.44269663e-05 C39.69432,7.44269663e-05 39.6634328,0.00100476404 39.6323596,0.00119083146 L39.6323596,13.3980448 C39.6634328,13.3978587 39.69432,13.3969284 39.7253933,13.3969284 C41.0202364,13.3969284 42.2933097,13.489776 43.5397753,13.6656097 C56.6850661,15.5195854 66.7982022,26.8127612 66.7982022,40.4697373 C66.7982022,55.4215567 54.6772126,67.5425463 39.7253933,67.5425463 C29.1813249,67.5425463 20.045787,61.5141481 15.5755173,52.7163225 L4.5785609,58.2512699 C11.2371694,70.8577095 24.4766103,79.4508609 39.7253933,79.4508609 C61.6651604,79.4508609 79.4507865,61.6650488 79.4507865,39.7254677 C79.4507865,19.0725427 63.68976,2.10300836 43.5397753,0.183164764 Z" id="Stroke-7" stroke="#FFFFFF" stroke-width="0.7452"></path>
                                        <path d="M12.6525843,40.4696629 C12.6525843,37.5603128 13.1134733,34.7590679 13.962871,32.1325402 C9.47269213,30.9136126 4.50990202,29.5569951 1.54659236,28.7172728 C0.540339775,32.2131074 0,35.9059874 0,39.7253933 C0,46.4163775 1.65674427,52.7195973 4.5785609,58.2511955 L15.5755173,52.7164342 C13.7068422,49.0386256 12.6525843,44.8774139 12.6525843,40.4696629" id="Fill-9" fill="#FFA600"></path>
                                        <path d="M12.6525843,40.4696629 C12.6525843,37.5603128 13.1134733,34.7590679 13.962871,32.1325402 C9.47269213,30.9136126 4.50990202,29.5569951 1.54659236,28.7172728 C0.540339775,32.2131074 0,35.9059874 0,39.7253933 C0,46.4163775 1.65674427,52.7195973 4.5785609,58.2511955 L15.5755173,52.7164342 C13.7068422,49.0386256 12.6525843,44.8774139 12.6525843,40.4696629 Z" id="Stroke-11" stroke="#FFFFFF" stroke-width="0.7452"></path>
                                    </g>
                                    <text id="1,003-Failed-Trades" font-family="Overpass-Regular, Overpass" font-size="10.53" font-weight="normal" line-spacing="14.58" fill="#000000">
                                        <tspan x="27.4027682" y="14.8539326">1,003</tspan>
                                        <tspan x="26.2128782" y="29.4339326">Failed</tspan>
                                        <tspan x="24.3016832" y="44.0139326">Trades</tspan>
                                    </text>
                                </g>
                            </g>
                            <g id="Group" stroke-width="1" fill-rule="evenodd" transform="translate(33.000000, 751.000000)">
                                <g id="Group-2" transform="translate(32.000000, 29.000000)"></g>
                                <g id="Group-3">
                                    <text id="50M-25M" font-family="Overpass-Regular, Overpass" font-size="10.5" font-weight="normal" line-spacing="38" fill="#333333">
                                        <tspan x="0" y="26">50M</tspan>
                                        <tspan x="0" y="64">25M</tspan>
                                    </text>
                                    <text id="Credi-Debit" font-family="Overpass-Regular, Overpass" font-size="10.5" font-weight="normal" line-spacing="35" fill="#333333">
                                        <tspan x="43" y="10">Credi    Debit</tspan>
                                        <tspan x="103.27" y="10" font-size="12">   </tspan>
                                        <tspan x="111.73" y="10" font-size="13"></tspan>
                                    </text>
                                    <line x1="31" y1="37" x2="108.675" y2="36.5" id="Line-Copy" stroke="#727272" stroke-width="0.7" stroke-linecap="square"></line>
                                    <line x1="31" y1="73.75" x2="108.675" y2="73.25" id="Line-Copy-2" stroke="#727272" stroke-width="0.7" stroke-linecap="square"></line>
                                </g>
                                <rect id="Rectangle" fill="#00B991" x="32" y="55.3963636" width="25" height="56"></rect>
                                <rect id="Rectangle-Copy" fill="#00B991" x="71" y="79.3963636" width="25" height="32"></rect>
                                <polygon id="Rectangle-Copy-5" fill="#F05858" points="32 31 57 31 57 56 32 56"></polygon>
                                <polygon id="Rectangle-Copy-6" fill="#F05858" points="71 49 96 49 96 83 71 83"></polygon>
                            </g>
                            <text id="CAPITAL" font-family="Overpass-SemiBold, Overpass" font-size="10.5" font-weight="500" line-spacing="12" fill="#333333">
                                <tspan x="87" y="15">CAPITAL</tspan>
                            </text>
                            <text id="Fund-Transactions" font-family="Overpass-SemiBold, Overpass" font-size="10.5" font-weight="500" line-spacing="12" fill="#333333">
                                <tspan x="55" y="133">FUND TRANSACTIONS</tspan>
                            </text>
                            <text id="RECONCILIATION" font-family="Overpass-SemiBold, Overpass" font-size="10.5" font-weight="500" line-spacing="12" fill="#333333">
                                <tspan x="64" y="238">RECONCILIATION</tspan>
                            </text>
                            <text id="VALUATION" font-family="Overpass-SemiBold, Overpass" font-size="10.5" font-weight="500" line-spacing="12" fill="#333333">
                                <tspan x="80" y="364">VALUATION</tspan>
                            </text>
                            <text id="NON-TRADING" font-family="Overpass-SemiBold, Overpass" font-size="10.5" font-weight="500" line-spacing="12" fill="#333333">
                                <tspan x="71" y="440">NON-TRADING</tspan>
                            </text>
                            <text id="PROFIT-&amp;-LOSS" font-family="Overpass-SemiBold, Overpass" font-size="10.5" font-weight="500" line-spacing="12" fill="#333333">
                                <tspan x="70" y="534">PROFIT &amp; LOSS </tspan>
                            </text>
                            <text id="ALLOCATION-&amp;-FEES" font-family="Overpass-SemiBold, Overpass" font-size="10.5" font-weight="500" line-spacing="16" fill="#333333">
                                <tspan x="56" y="604">ALLOCATION &amp; FEES  </tspan>
                            </text>
                            <text id="NAV-PAC" font-family="Overpass-Regular, Overpass" font-size="11" font-weight="normal" line-spacing="12" fill="#000000">
                                <tspan x="87" y="686">NAV PAC</tspan>
                            </text>
                            <text id="TREASURY" font-family="Overpass-SemiBold, Overpass" font-size="10.5" font-weight="500" line-spacing="12" fill="#333333">
                                <tspan x="80" y="757">TREASURY</tspan>
                            </text>
                        </g>
                        <circle id="Oval-Copy" fill="#FE4851" cx="51.5" cy="719.5" r="27.5"></circle>
                        <text id="10" font-family="Overpass-SemiBold, Overpass" font-size="35.112" font-weight="500" line-spacing="12.50865" fill="#FFFFFF">
                            <tspan x="33" y="434">10</tspan>
                        </text>
                        <text id="8" font-family="Overpass-SemiBold, Overpass" font-size="35.112" font-weight="500" line-spacing="12.50865" fill="#FFFFFF">
                            <tspan x="41" y="680">8</tspan>
                        </text>
                        <text id="4" font-family="Overpass-SemiBold, Overpass" font-size="35.112" font-weight="500" line-spacing="12.50865" fill="#FFFFFF">
                            <tspan x="39" y="752">4</tspan>
                        </text>
                    </g>
                </g>
            </g>
        </g>
    </g>
</svg>